<mxfile host="app.diagrams.net" agent="Mozilla/5.0 (X11; Linux x86_64) AppleWebKit/537.36 (KHTML, like Gecko) Chrome/125.0.0.0 Safari/537.36" version="26.0.14">
  <diagram name="第 1 页" id="p126cNRt7oJayWT31wWm">
    <mxGraphModel dx="2023" dy="599" grid="1" gridSize="10" guides="1" tooltips="1" connect="1" arrows="1" fold="1" page="1" pageScale="1" pageWidth="827" pageHeight="1169" math="0" shadow="0">
      <root>
        <mxCell id="0" />
        <mxCell id="1" parent="0" />
        <mxCell id="BXwPxJwxkq0CWPyWvuHf-78" value="" style="rounded=1;whiteSpace=wrap;html=1;fillColor=#fad9d5;strokeColor=#ae4132;glass=0;shadow=0;sketch=1;curveFitting=1;jiggle=2;" parent="1" vertex="1">
          <mxGeometry x="20" y="334" width="710" height="160" as="geometry" />
        </mxCell>
        <mxCell id="BXwPxJwxkq0CWPyWvuHf-61" value="" style="rounded=1;whiteSpace=wrap;html=1;fillColor=#b1ddf0;strokeColor=#10739e;sketch=1;curveFitting=1;jiggle=2;" parent="1" vertex="1">
          <mxGeometry x="250" y="140" width="310" height="160" as="geometry" />
        </mxCell>
        <mxCell id="BXwPxJwxkq0CWPyWvuHf-25" value="" style="edgeStyle=orthogonalEdgeStyle;rounded=0;orthogonalLoop=1;jettySize=auto;html=1;exitX=1;exitY=0.5;exitDx=0;exitDy=0;entryX=0.5;entryY=1;entryDx=0;entryDy=0;fillColor=#dae8fc;strokeColor=#6c8ebf;strokeWidth=2;" parent="1" source="BXwPxJwxkq0CWPyWvuHf-1" target="BXwPxJwxkq0CWPyWvuHf-43" edge="1">
          <mxGeometry relative="1" as="geometry">
            <mxPoint x="390" y="410" as="targetPoint" />
            <Array as="points">
              <mxPoint x="550" y="410" />
              <mxPoint x="550" y="470" />
              <mxPoint x="380" y="470" />
            </Array>
            <mxPoint as="offset" />
          </mxGeometry>
        </mxCell>
        <mxCell id="BXwPxJwxkq0CWPyWvuHf-73" style="edgeStyle=orthogonalEdgeStyle;rounded=0;orthogonalLoop=1;jettySize=auto;html=1;exitX=1;exitY=0.5;exitDx=0;exitDy=0;entryX=0;entryY=0.5;entryDx=0;entryDy=0;fillColor=#f8cecc;strokeColor=#b85450;strokeWidth=2;" parent="1" source="BXwPxJwxkq0CWPyWvuHf-1" target="BXwPxJwxkq0CWPyWvuHf-72" edge="1">
          <mxGeometry relative="1" as="geometry" />
        </mxCell>
        <mxCell id="BXwPxJwxkq0CWPyWvuHf-1" value="&lt;i&gt;&lt;b&gt;&lt;font style=&quot;color: rgb(0, 0, 0);&quot; face=&quot;Lucida Console&quot;&gt;Difussion&amp;nbsp;&lt;/font&gt;&lt;/b&gt;&lt;/i&gt;&lt;div&gt;&lt;i&gt;&lt;b&gt;&lt;font style=&quot;color: rgb(0, 0, 0);&quot; face=&quot;Lucida Console&quot;&gt;module&lt;/font&gt;&lt;/b&gt;&lt;/i&gt;&lt;/div&gt;" style="rounded=1;whiteSpace=wrap;html=1;fillColor=#0050ef;strokeColor=#001DBC;sketch=1;curveFitting=1;jiggle=2;fontColor=#ffffff;" parent="1" vertex="1">
          <mxGeometry x="414" y="370" width="110" height="80" as="geometry" />
        </mxCell>
        <mxCell id="BXwPxJwxkq0CWPyWvuHf-75" style="edgeStyle=orthogonalEdgeStyle;rounded=0;orthogonalLoop=1;jettySize=auto;html=1;exitX=1;exitY=0.5;exitDx=0;exitDy=0;entryX=0.5;entryY=0;entryDx=0;entryDy=0;fillColor=#d5e8d4;strokeColor=#82b366;strokeWidth=2;" parent="1" source="BXwPxJwxkq0CWPyWvuHf-2" target="BXwPxJwxkq0CWPyWvuHf-1" edge="1">
          <mxGeometry relative="1" as="geometry">
            <Array as="points">
              <mxPoint x="200" y="400" />
              <mxPoint x="200" y="350" />
              <mxPoint x="469" y="350" />
            </Array>
          </mxGeometry>
        </mxCell>
        <mxCell id="BXwPxJwxkq0CWPyWvuHf-77" style="edgeStyle=orthogonalEdgeStyle;rounded=0;orthogonalLoop=1;jettySize=auto;html=1;exitX=1;exitY=0.5;exitDx=0;exitDy=0;entryX=0.5;entryY=0;entryDx=0;entryDy=0;fillColor=#d5e8d4;strokeColor=#82b366;strokeWidth=2;" parent="1" source="BXwPxJwxkq0CWPyWvuHf-2" target="BXwPxJwxkq0CWPyWvuHf-72" edge="1">
          <mxGeometry relative="1" as="geometry">
            <Array as="points">
              <mxPoint x="200" y="400" />
              <mxPoint x="200" y="350" />
              <mxPoint x="660" y="350" />
            </Array>
          </mxGeometry>
        </mxCell>
        <mxCell id="BXwPxJwxkq0CWPyWvuHf-2" value="&lt;b&gt;&lt;i&gt;Evoformer&lt;/i&gt;&lt;/b&gt;" style="rounded=1;whiteSpace=wrap;html=1;fillColor=#f0a30a;strokeColor=#BD7000;sketch=1;curveFitting=1;jiggle=2;fontColor=#000000;" parent="1" vertex="1">
          <mxGeometry x="60" y="365" width="100" height="70" as="geometry" />
        </mxCell>
        <mxCell id="BXwPxJwxkq0CWPyWvuHf-3" style="edgeStyle=orthogonalEdgeStyle;rounded=0;orthogonalLoop=1;jettySize=auto;html=1;exitX=1;exitY=0.5;exitDx=0;exitDy=0;entryX=0;entryY=0.5;entryDx=0;entryDy=0;fillColor=#fff2cc;strokeColor=#d6b656;strokeWidth=2;" parent="1" source="BXwPxJwxkq0CWPyWvuHf-2" target="BXwPxJwxkq0CWPyWvuHf-2" edge="1">
          <mxGeometry relative="1" as="geometry">
            <Array as="points">
              <mxPoint x="200" y="400" />
              <mxPoint x="200" y="460" />
              <mxPoint x="40" y="460" />
              <mxPoint x="40" y="400" />
            </Array>
          </mxGeometry>
        </mxCell>
        <mxCell id="BXwPxJwxkq0CWPyWvuHf-4" value="&lt;b&gt;Recyling&lt;/b&gt;" style="text;html=1;align=center;verticalAlign=middle;whiteSpace=wrap;rounded=0;" parent="1" vertex="1">
          <mxGeometry x="80" y="461" width="60" height="30" as="geometry" />
        </mxCell>
        <mxCell id="BXwPxJwxkq0CWPyWvuHf-13" value="" style="rounded=0;whiteSpace=wrap;html=1;fillColor=#f5f5f5;fontColor=#333333;strokeColor=#666666;sketch=1;curveFitting=1;jiggle=2;" parent="1" vertex="1">
          <mxGeometry x="255" y="375" width="60" height="50" as="geometry" />
        </mxCell>
        <mxCell id="BXwPxJwxkq0CWPyWvuHf-20" value="" style="rounded=0;whiteSpace=wrap;html=1;fillColor=#f5f5f5;fontColor=#333333;strokeColor=#666666;sketch=1;curveFitting=1;jiggle=2;" parent="1" vertex="1">
          <mxGeometry x="265" y="385" width="60" height="50" as="geometry" />
        </mxCell>
        <mxCell id="BXwPxJwxkq0CWPyWvuHf-23" value="" style="endArrow=classic;html=1;rounded=0;entryX=0;entryY=0.5;entryDx=0;entryDy=0;fillColor=#dae8fc;strokeColor=#6c8ebf;strokeWidth=2;" parent="1" source="BXwPxJwxkq0CWPyWvuHf-43" target="BXwPxJwxkq0CWPyWvuHf-1" edge="1">
          <mxGeometry width="50" height="50" relative="1" as="geometry">
            <mxPoint x="340" y="409.5" as="sourcePoint" />
            <mxPoint x="404" y="409.5" as="targetPoint" />
          </mxGeometry>
        </mxCell>
        <mxCell id="BXwPxJwxkq0CWPyWvuHf-27" style="edgeStyle=orthogonalEdgeStyle;rounded=0;orthogonalLoop=1;jettySize=auto;html=1;entryX=0;entryY=0.5;entryDx=0;entryDy=0;endArrow=none;startFill=0;fillColor=#ffe6cc;strokeColor=#d79b00;strokeWidth=2;" parent="1" target="BXwPxJwxkq0CWPyWvuHf-2" edge="1">
          <mxGeometry relative="1" as="geometry">
            <mxPoint x="-20" y="400" as="sourcePoint" />
          </mxGeometry>
        </mxCell>
        <mxCell id="BXwPxJwxkq0CWPyWvuHf-26" value="" style="rounded=1;whiteSpace=wrap;html=1;fillColor=#e3c800;strokeColor=#B09500;sketch=1;curveFitting=1;jiggle=2;fontColor=#000000;" parent="1" vertex="1">
          <mxGeometry x="-70" y="385" width="50" height="40" as="geometry" />
        </mxCell>
        <mxCell id="BXwPxJwxkq0CWPyWvuHf-41" value="&lt;b&gt;&lt;font style=&quot;font-size: 15px;&quot;&gt;RPC&lt;/font&gt;&lt;/b&gt;" style="text;html=1;align=center;verticalAlign=middle;whiteSpace=wrap;rounded=0;strokeWidth=3;" parent="1" vertex="1">
          <mxGeometry x="140" y="244" width="60" height="30" as="geometry" />
        </mxCell>
        <mxCell id="BXwPxJwxkq0CWPyWvuHf-44" value="" style="endArrow=none;html=1;rounded=0;entryX=0;entryY=0.5;entryDx=0;entryDy=0;startFill=0;strokeWidth=2;fillColor=#dae8fc;strokeColor=#6c8ebf;" parent="1" target="BXwPxJwxkq0CWPyWvuHf-43" edge="1">
          <mxGeometry width="50" height="50" relative="1" as="geometry">
            <mxPoint x="340" y="410" as="sourcePoint" />
            <mxPoint x="404" y="409.5" as="targetPoint" />
          </mxGeometry>
        </mxCell>
        <mxCell id="BXwPxJwxkq0CWPyWvuHf-43" value="" style="shape=orEllipse;perimeter=ellipsePerimeter;whiteSpace=wrap;html=1;backgroundOutline=1;fillColor=none;strokeColor=#23445d;strokeWidth=2;" parent="1" vertex="1">
          <mxGeometry x="370" y="400" width="20" height="20" as="geometry" />
        </mxCell>
        <mxCell id="BXwPxJwxkq0CWPyWvuHf-45" value="" style="edgeStyle=orthogonalEdgeStyle;rounded=0;orthogonalLoop=1;jettySize=auto;html=1;exitX=1;exitY=0.5;exitDx=0;exitDy=0;entryX=0.5;entryY=1;entryDx=0;entryDy=0;fillColor=#dae8fc;strokeColor=#6c8ebf;strokeWidth=2;" parent="1" source="BXwPxJwxkq0CWPyWvuHf-46" edge="1">
          <mxGeometry relative="1" as="geometry">
            <mxPoint x="380" y="229.94000000000005" as="targetPoint" />
            <Array as="points">
              <mxPoint x="550" y="219.94" />
              <mxPoint x="550" y="279.94" />
              <mxPoint x="380" y="279.94" />
            </Array>
          </mxGeometry>
        </mxCell>
        <mxCell id="BXwPxJwxkq0CWPyWvuHf-65" style="edgeStyle=orthogonalEdgeStyle;rounded=0;orthogonalLoop=1;jettySize=auto;html=1;exitX=1;exitY=0.5;exitDx=0;exitDy=0;fillColor=#f8cecc;strokeColor=#b85450;strokeWidth=2;sketch=1;curveFitting=1;jiggle=2;" parent="1" source="BXwPxJwxkq0CWPyWvuHf-46" edge="1">
          <mxGeometry relative="1" as="geometry">
            <mxPoint x="610" y="410" as="targetPoint" />
            <Array as="points">
              <mxPoint x="580" y="220" />
              <mxPoint x="580" y="410" />
            </Array>
          </mxGeometry>
        </mxCell>
        <mxCell id="BXwPxJwxkq0CWPyWvuHf-46" value="&lt;i&gt;&lt;b&gt;&lt;font style=&quot;color: rgb(0, 0, 0);&quot; face=&quot;Lucida Console&quot;&gt;Difussion&amp;nbsp;&lt;/font&gt;&lt;/b&gt;&lt;/i&gt;&lt;div&gt;&lt;i&gt;&lt;b&gt;&lt;font style=&quot;color: rgb(0, 0, 0);&quot; face=&quot;Lucida Console&quot;&gt;module&lt;/font&gt;&lt;/b&gt;&lt;/i&gt;&lt;/div&gt;" style="rounded=1;whiteSpace=wrap;html=1;fillColor=#0050ef;strokeColor=#001DBC;sketch=1;curveFitting=1;jiggle=2;fontColor=#ffffff;" parent="1" vertex="1">
          <mxGeometry x="414" y="179.94" width="110" height="80" as="geometry" />
        </mxCell>
        <mxCell id="BXwPxJwxkq0CWPyWvuHf-47" style="edgeStyle=orthogonalEdgeStyle;rounded=0;orthogonalLoop=1;jettySize=auto;html=1;fillColor=#d5e8d4;strokeColor=#82b366;entryX=0.5;entryY=0;entryDx=0;entryDy=0;strokeWidth=2;sketch=1;curveFitting=1;jiggle=2;" parent="1" target="BXwPxJwxkq0CWPyWvuHf-46" edge="1">
          <mxGeometry relative="1" as="geometry">
            <mxPoint x="350" y="209.94" as="targetPoint" />
            <Array as="points">
              <mxPoint x="200" y="400" />
              <mxPoint x="200" y="160" />
              <mxPoint x="470" y="160" />
              <mxPoint x="470" y="180" />
            </Array>
            <mxPoint x="160" y="400" as="sourcePoint" />
          </mxGeometry>
        </mxCell>
        <mxCell id="BXwPxJwxkq0CWPyWvuHf-51" value="" style="rounded=0;whiteSpace=wrap;html=1;fillColor=#f5f5f5;fontColor=#333333;strokeColor=#666666;sketch=1;curveFitting=1;jiggle=2;" parent="1" vertex="1">
          <mxGeometry x="265" y="199.94" width="60" height="50" as="geometry" />
        </mxCell>
        <mxCell id="BXwPxJwxkq0CWPyWvuHf-52" value="" style="rounded=0;whiteSpace=wrap;html=1;fillColor=#f5f5f5;fontColor=#333333;strokeColor=#666666;sketch=1;curveFitting=1;jiggle=2;" parent="1" vertex="1">
          <mxGeometry x="275" y="209.94" width="60" height="50" as="geometry" />
        </mxCell>
        <mxCell id="BXwPxJwxkq0CWPyWvuHf-54" value="" style="endArrow=classic;html=1;rounded=0;entryX=0;entryY=0.5;entryDx=0;entryDy=0;fillColor=#dae8fc;strokeColor=#6c8ebf;strokeWidth=2;" parent="1" target="BXwPxJwxkq0CWPyWvuHf-46" edge="1">
          <mxGeometry width="50" height="50" relative="1" as="geometry">
            <mxPoint x="390" y="219.94000000000005" as="sourcePoint" />
            <mxPoint x="404" y="219.44" as="targetPoint" />
          </mxGeometry>
        </mxCell>
        <mxCell id="BXwPxJwxkq0CWPyWvuHf-57" value="" style="endArrow=none;html=1;rounded=0;entryX=0;entryY=0.5;entryDx=0;entryDy=0;startFill=0;fillColor=#dae8fc;strokeColor=#6c8ebf;strokeWidth=2;" parent="1" edge="1">
          <mxGeometry width="50" height="50" relative="1" as="geometry">
            <mxPoint x="340" y="219.94" as="sourcePoint" />
            <mxPoint x="370" y="219.94000000000005" as="targetPoint" />
          </mxGeometry>
        </mxCell>
        <mxCell id="BXwPxJwxkq0CWPyWvuHf-64" value="" style="rounded=0;whiteSpace=wrap;html=1;fillColor=#f5f5f5;fontColor=#333333;strokeColor=#666666;sketch=1;curveFitting=1;jiggle=2;" parent="1" vertex="1">
          <mxGeometry x="275" y="395" width="60" height="50" as="geometry" />
        </mxCell>
        <mxCell id="BXwPxJwxkq0CWPyWvuHf-68" value="" style="shape=orEllipse;perimeter=ellipsePerimeter;whiteSpace=wrap;html=1;backgroundOutline=1;fillColor=none;strokeColor=#23445d;strokeWidth=2;" parent="1" vertex="1">
          <mxGeometry x="370" y="209.94" width="20" height="20" as="geometry" />
        </mxCell>
        <mxCell id="BXwPxJwxkq0CWPyWvuHf-69" value="&lt;b&gt;Iteration&lt;/b&gt;" style="text;html=1;align=center;verticalAlign=middle;whiteSpace=wrap;rounded=0;" parent="1" vertex="1">
          <mxGeometry x="439" y="470" width="60" height="30" as="geometry" />
        </mxCell>
        <mxCell id="BXwPxJwxkq0CWPyWvuHf-70" value="&lt;b&gt;Iteration&lt;/b&gt;" style="text;html=1;align=center;verticalAlign=middle;whiteSpace=wrap;rounded=0;" parent="1" vertex="1">
          <mxGeometry x="439" y="274" width="60" height="30" as="geometry" />
        </mxCell>
        <mxCell id="BXwPxJwxkq0CWPyWvuHf-79" style="edgeStyle=orthogonalEdgeStyle;rounded=0;orthogonalLoop=1;jettySize=auto;html=1;exitX=1;exitY=0.5;exitDx=0;exitDy=0;" parent="1" source="BXwPxJwxkq0CWPyWvuHf-72" edge="1">
          <mxGeometry relative="1" as="geometry">
            <mxPoint x="750" y="410.2941176470588" as="targetPoint" />
          </mxGeometry>
        </mxCell>
        <mxCell id="BXwPxJwxkq0CWPyWvuHf-72" value="&lt;b&gt;&lt;i&gt;&lt;font style=&quot;color: rgb(0, 0, 0);&quot;&gt;Confidence&lt;br&gt;module&lt;/font&gt;&lt;/i&gt;&lt;/b&gt;" style="rounded=1;whiteSpace=wrap;html=1;fillColor=#e51400;strokeColor=#B20000;sketch=1;curveFitting=1;jiggle=2;fontColor=#ffffff;" parent="1" vertex="1">
          <mxGeometry x="610" y="385" width="100" height="50" as="geometry" />
        </mxCell>
        <mxCell id="BXwPxJwxkq0CWPyWvuHf-74" value="&lt;b&gt;&lt;font style=&quot;font-size: 15px;&quot;&gt;Combine&lt;/font&gt;&lt;/b&gt;" style="text;html=1;align=center;verticalAlign=middle;whiteSpace=wrap;rounded=0;" parent="1" vertex="1">
          <mxGeometry x="590" y="270" width="60" height="30" as="geometry" />
        </mxCell>
        <mxCell id="BXwPxJwxkq0CWPyWvuHf-96" value="" style="group" parent="1" vertex="1" connectable="0">
          <mxGeometry x="767" y="385" width="73" height="55" as="geometry" />
        </mxCell>
        <mxCell id="BXwPxJwxkq0CWPyWvuHf-82" value="" style="rounded=0;whiteSpace=wrap;html=1;fillColor=#fa6800;fontColor=#000000;strokeColor=#C73500;sketch=1;curveFitting=1;jiggle=2;" parent="BXwPxJwxkq0CWPyWvuHf-96" vertex="1">
          <mxGeometry width="43.8" height="30.555555555555557" as="geometry" />
        </mxCell>
        <mxCell id="BXwPxJwxkq0CWPyWvuHf-92" value="" style="rounded=0;whiteSpace=wrap;html=1;fillColor=#fa6800;fontColor=#000000;strokeColor=#C73500;sketch=1;curveFitting=1;jiggle=2;" parent="BXwPxJwxkq0CWPyWvuHf-96" vertex="1">
          <mxGeometry x="7.3" y="6.111111111111112" width="43.8" height="30.555555555555557" as="geometry" />
        </mxCell>
        <mxCell id="BXwPxJwxkq0CWPyWvuHf-93" value="" style="rounded=0;whiteSpace=wrap;html=1;fillColor=#fa6800;fontColor=#000000;strokeColor=#C73500;sketch=1;curveFitting=1;jiggle=2;" parent="BXwPxJwxkq0CWPyWvuHf-96" vertex="1">
          <mxGeometry x="14.6" y="12.222222222222223" width="43.8" height="30.555555555555557" as="geometry" />
        </mxCell>
        <mxCell id="BXwPxJwxkq0CWPyWvuHf-94" value="" style="rounded=0;whiteSpace=wrap;html=1;fillColor=#fa6800;fontColor=#000000;strokeColor=#C73500;sketch=1;curveFitting=1;jiggle=2;" parent="BXwPxJwxkq0CWPyWvuHf-96" vertex="1">
          <mxGeometry x="21.9" y="18.333333333333336" width="43.8" height="30.555555555555557" as="geometry" />
        </mxCell>
        <mxCell id="BXwPxJwxkq0CWPyWvuHf-95" value="" style="rounded=0;whiteSpace=wrap;html=1;fillColor=#fa6800;fontColor=#000000;strokeColor=#C73500;sketch=1;curveFitting=1;jiggle=2;" parent="BXwPxJwxkq0CWPyWvuHf-96" vertex="1">
          <mxGeometry x="29.2" y="24.444444444444446" width="43.8" height="30.555555555555557" as="geometry" />
        </mxCell>
        <mxCell id="BXwPxJwxkq0CWPyWvuHf-97" value="&lt;b&gt;GPU 0&lt;/b&gt;" style="text;html=1;align=center;verticalAlign=middle;whiteSpace=wrap;rounded=0;" parent="1" vertex="1">
          <mxGeometry x="660" y="334" width="60" height="30" as="geometry" />
        </mxCell>
        <mxCell id="BXwPxJwxkq0CWPyWvuHf-98" value="&lt;b&gt;GPU 1&lt;/b&gt;" style="text;html=1;align=center;verticalAlign=middle;whiteSpace=wrap;rounded=0;" parent="1" vertex="1">
          <mxGeometry x="499" y="140" width="60" height="30" as="geometry" />
        </mxCell>
        <mxCell id="BXwPxJwxkq0CWPyWvuHf-99" value="&lt;b&gt;5 sample output&lt;/b&gt;" style="text;html=1;align=center;verticalAlign=middle;whiteSpace=wrap;rounded=0;" parent="1" vertex="1">
          <mxGeometry x="743.5" y="345" width="120" height="30" as="geometry" />
        </mxCell>
        <mxCell id="BXwPxJwxkq0CWPyWvuHf-100" value="&lt;b&gt;input&lt;/b&gt;" style="text;html=1;align=center;verticalAlign=middle;whiteSpace=wrap;rounded=0;" parent="1" vertex="1">
          <mxGeometry x="-103" y="355" width="120" height="30" as="geometry" />
        </mxCell>
      </root>
    </mxGraphModel>
  </diagram>
</mxfile>
